<svg width="24" height="24" viewBox="0 0 24 24" fill="none" xmlns="http://www.w3.org/2000/svg">
<path d="M14.4907 2.25C15.4087 2.25 16.2921 2.58664 16.9757 3.19157L17.1423 3.34835L19.6516 5.85767C20.3008 6.50683 20.6874 7.36949 20.743 8.28062L20.75 8.50931V18C20.75 20.0043 19.1776 21.6413 17.1992 21.7448L17 21.75H16C15.5858 21.75 15.25 21.4142 15.25 21C15.25 20.6203 15.5322 20.3065 15.8982 20.2568L16 20.25H17C18.1909 20.25 19.1656 19.3248 19.2448 18.154L19.25 18V8.50931C19.25 7.97888 19.0627 7.46776 18.7247 7.06438L18.591 6.91833L16.0817 4.40901C15.7066 4.03394 15.2127 3.80496 14.6885 3.75871L14.4907 3.75H7C5.80914 3.75 4.83436 4.67516 4.75519 5.84595L4.75 6V8C4.75 8.41421 4.41421 8.75 4 8.75C3.6203 8.75 3.30651 8.46785 3.25685 8.10177L3.25 8V6C3.25 3.99574 4.82236 2.35873 6.80084 2.2552L7 2.25H14.4907Z" fill="#19191F"/>
<path d="M14.5 2.25C14.8797 2.25 15.1935 2.53215 15.2432 2.89823L15.25 3V6.5C15.25 7.14721 15.7419 7.67953 16.3722 7.74355L16.5 7.75H20C20.4142 7.75 20.75 8.08579 20.75 8.5C20.75 8.8797 20.4678 9.19349 20.1018 9.24315L20 9.25H16.5C15.0375 9.25 13.8416 8.1083 13.755 6.66752L13.75 6.5V3C13.75 2.58579 14.0858 2.25 14.5 2.25Z" fill="#19191F"/>
<path fill-rule="evenodd" clip-rule="evenodd" d="M5.5 10.25H9.97157C10.7009 10.25 11.4004 10.5397 11.9161 11.0555L12.9445 12.0839C13.4603 12.5996 13.75 13.2991 13.75 14.0284V19.5C13.75 20.7426 12.7426 21.75 11.5 21.75H5.5C4.25736 21.75 3.25 20.7426 3.25 19.5V12.5C3.25 11.2574 4.25736 10.25 5.5 10.25ZM9.97157 11.75H5.5C5.08579 11.75 4.75 12.0858 4.75 12.5V19.5C4.75 19.9142 5.08579 20.25 5.5 20.25H11.5C11.9142 20.25 12.25 19.9142 12.25 19.5V14.0284C12.25 13.6969 12.1183 13.379 11.8839 13.1445L10.8555 12.1161C10.621 11.8817 10.3031 11.75 9.97157 11.75Z" fill="#19191F"/>
</svg>
