<svg width="28" height="28" viewBox="0 0 28 28" fill="none" xmlns="http://www.w3.org/2000/svg">
<path d="M19.2165 19.2162C19.5271 18.9056 20.0132 18.8774 20.3558 19.1315L20.4539 19.2162L23.952 22.7144C24.2938 23.0561 24.2938 23.6101 23.952 23.9518C23.6414 24.2624 23.1553 24.2907 22.8127 24.0365L22.7146 23.9518L19.2165 20.4537C18.8748 20.112 18.8748 19.558 19.2165 19.2162Z" fill="#FF2D55"/>
<path d="M22.7146 19.2148C23.0563 18.8731 23.6103 18.8731 23.952 19.2148C24.2627 19.5254 24.2909 20.0115 24.0368 20.3541L23.952 20.4522L20.4539 23.9503C20.1122 24.292 19.5582 24.292 19.2165 23.9503C18.9058 23.6397 18.8776 23.1536 19.1318 22.811L19.2165 22.7129L22.7146 19.2148Z" fill="#FF2D55"/>
<path d="M14.5833 7.2915C15.0263 7.2915 15.3924 7.62068 15.4503 8.04777L15.4583 8.1665V14.5832C15.4583 15.0261 15.1291 15.3922 14.702 15.4502L14.5833 15.4582H9.33331C8.85006 15.4582 8.45831 15.0664 8.45831 14.5832C8.45831 14.1402 8.78749 13.7741 9.21458 13.7162L9.33331 13.7082H13.7083V8.1665C13.7083 7.72353 14.0375 7.35743 14.4646 7.29949L14.5833 7.2915Z" fill="#FF2D55"/>
<path d="M14 2.625C20.2822 2.625 25.375 7.71776 25.3749 14.0148C25.3604 14.8688 25.248 15.7182 25.0399 16.5465C24.9221 17.0152 24.4467 17.2997 23.978 17.182C23.5093 17.0642 23.2249 16.5888 23.3426 16.1201C23.5181 15.4216 23.6129 14.7053 23.625 14C23.625 8.68426 19.3157 4.375 14 4.375C8.68426 4.375 4.375 8.68426 4.375 14C4.375 19.3157 8.68426 23.625 13.9851 23.6251C14.7052 23.6129 15.4216 23.5181 16.1201 23.3426C16.5888 23.2248 17.0642 23.5093 17.182 23.9779C17.2997 24.4466 17.0152 24.922 16.5466 25.0398C15.7183 25.2479 14.8688 25.3604 14 25.375C7.71776 25.375 2.625 20.2822 2.625 14C2.625 7.71776 7.71776 2.625 14 2.625Z" fill="#FF2D55"/>
</svg>
